<svg width="219" height="59" viewBox="0 0 219 59" fill="none" xmlns="http://www.w3.org/2000/svg">
<path d="M86.9548 43.2637C84.5378 43.2637 82.9265 42.043 82.9265 40.0898C82.9265 38.2344 84.4401 37.0381 87.1013 36.8428L92.6188 36.501V38.4053C92.6188 41.2373 90.0554 43.2637 86.9548 43.2637ZM84.611 48.415C87.8825 48.415 91.1296 46.7793 92.5944 43.9961H92.7409V48H99.6257V30.0068C99.6257 24.7334 95.2556 21.2666 88.5417 21.2666C81.6081 21.2666 77.2868 24.7578 77.0182 29.8359H83.5368C83.8786 27.9072 85.5632 26.5889 88.2243 26.5889C90.9099 26.5889 92.6188 28.0049 92.6188 30.4463V32.1797L86.027 32.5703C79.5085 32.9609 75.8464 35.7197 75.8464 40.4805C75.8464 45.1924 79.6306 48.415 84.611 48.415ZM120.451 48C127.97 48 132.633 44.1182 132.633 37.917C132.633 33.2539 129.118 29.7627 124.333 29.3965V29.2012C128.068 28.6396 130.949 25.417 130.949 21.5596C130.949 16.1641 126.799 12.7705 120.182 12.7705H104.85V48H120.451ZM112.223 18.2637H118.278C121.72 18.2637 123.698 19.875 123.698 22.707C123.698 25.6855 121.452 27.4189 117.521 27.4189H112.223V18.2637ZM112.223 42.5068V32.2773H118.4C122.746 32.2773 125.114 34.0352 125.114 37.3311C125.114 40.7002 122.819 42.5068 118.571 42.5068H112.223ZM148.234 48.5615C156.144 48.5615 161.198 43.5078 161.198 34.8896C161.198 26.3936 156.071 21.2666 148.234 21.2666C140.397 21.2666 135.27 26.418 135.27 34.8896C135.27 43.4834 140.324 48.5615 148.234 48.5615ZM148.234 43.1172C144.718 43.1172 142.497 40.1631 142.497 34.9141C142.497 29.7139 144.767 26.7109 148.234 26.7109C151.701 26.7109 153.947 29.7139 153.947 34.9141C153.947 40.1631 151.725 43.1172 148.234 43.1172ZM176.896 48.5615C184.806 48.5615 189.86 43.5078 189.86 34.8896C189.86 26.3936 184.733 21.2666 176.896 21.2666C169.059 21.2666 163.932 26.418 163.932 34.8896C163.932 43.4834 168.986 48.5615 176.896 48.5615ZM176.896 43.1172C173.381 43.1172 171.159 40.1631 171.159 34.9141C171.159 29.7139 173.429 26.7109 176.896 26.7109C180.363 26.7109 182.609 29.7139 182.609 34.9141C182.609 40.1631 180.387 43.1172 176.896 43.1172ZM200.944 32.3262H200.846V12.7705H193.717V48H200.846V39.3574L202.702 37.3555L210.197 48H218.4L207.926 33.0586L217.912 21.8281H209.831L200.944 32.3262Z" fill="#2867F9"/>
<path d="M17.5507 21.396C17.6364 21.396 37.4323 21.396 37.4323 21.396C37.4725 21.3942 37.8009 21.3848 38.0322 21.6531C38.2512 21.9071 38.2102 22.2094 38.2036 22.253L31.1764 42.8202H51.3152C52.9909 42.8112 55.5468 42.6005 58.428 41.5348C59.6272 41.0912 61.771 40.2782 63.827 38.5354C68.1769 34.8481 68.882 29.2204 69.0544 29.2802C69.1746 29.3218 68.5604 31.9483 67.1691 35.1932C66.2958 37.23 65.4742 38.6756 64.7696 39.9066C63.1704 42.7003 61.9717 44.8133 59.7991 47.1908C57.8438 49.3306 56.0142 50.724 55.0858 51.3899C52.4978 53.2464 50.2954 54.1974 48.23 55.0749C45.8187 56.0993 42.4388 57.3123 38.2035 58.1599H5.63885C5.54578 58.1347 4.90505 57.9494 4.61051 57.303C4.39909 56.839 4.49017 56.41 4.52479 56.2746L16.6937 22.253C16.7137 22.1561 16.784 21.8793 17.0365 21.6532C17.2362 21.4743 17.4499 21.4165 17.5507 21.396Z" fill="url(#paint0_linear)" stroke="black" stroke-width="0.25" stroke-miterlimit="10"/>
<path d="M36.0425 42.8204H51.3153C53.7026 42.8259 55.6393 42.4256 56.9713 42.0491C59.1357 41.4372 60.6288 40.6262 60.999 40.4208C62.9102 39.3605 64.1257 38.2233 64.4269 37.9356C65.4973 36.9133 66.2199 35.9341 66.655 35.279C67.0266 34.7195 67.8318 33.4284 68.4546 31.5941C68.5897 31.1964 68.908 30.259 69.0545 29.2803C69.6948 25.0043 66.8462 21.3384 66.4836 20.882C65.2029 19.2695 63.7864 18.3835 62.9701 17.8826C60.9597 16.6491 59.0617 16.1412 57.8282 15.9116H40.6032C41.4329 15.9227 42.6419 16.0179 44.031 16.4258C45.0878 16.7362 47.773 17.5641 49.8584 20.1108C50.3157 20.6692 51.4481 22.0841 51.9152 24.2242C52.2144 25.5951 52.1208 26.7151 52.0866 27.0522C52.0058 27.8484 51.8362 28.4153 51.5724 29.2803C51.3854 29.8933 51.0391 31.0119 50.3726 32.3654C49.286 34.572 48.0185 36.0422 47.6302 36.4788C45.5605 38.8066 43.3906 39.9761 42.0599 40.6779C40.6946 41.3981 38.6631 42.2877 36.0425 42.8204Z" fill="url(#paint1_linear)" stroke="black" stroke-width="0.25" stroke-miterlimit="10"/>
<path d="M1.354 2.1142L16.9508 15.4829C17.0344 15.5712 17.2031 15.7263 17.465 15.8256C17.7205 15.9226 17.9443 15.9208 18.0648 15.9113H57.8281C59.1309 16.2092 61.0345 16.7995 63.0556 18.0537C63.8101 18.5219 65.2675 19.4263 66.4834 20.8817C69.0352 23.936 69.1145 27.7305 69.0543 29.28C69.3987 27.9612 69.7786 26.1143 69.9113 23.8811C70.0275 21.9254 70.1736 19.4673 69.3114 16.5111C69.1483 15.9521 68.3389 13.2823 66.1406 10.4267C63.4618 6.94665 60.336 5.28926 58.1708 4.1708C53.9333 1.9819 49.8929 1.23519 46.9446 1H1.354C1.32 1.01697 1.06818 1.14775 1.01124 1.42848C0.958421 1.68874 1.0949 1.96954 1.354 2.1142Z" fill="url(#paint2_linear)" stroke="black" stroke-width="0.25" stroke-miterlimit="10"/>
<defs>
<linearGradient id="paint0_linear" x1="9.34151" y1="55.2273" x2="59.5392" y2="20.0785" gradientUnits="userSpaceOnUse">
<stop stop-color="#00A99D"/>
<stop offset="0.7458" stop-color="#1B1464"/>
</linearGradient>
<linearGradient id="paint1_linear" x1="51.8432" y1="44.2028" x2="54.345" y2="15.6069" gradientUnits="userSpaceOnUse">
<stop stop-color="#1B1464"/>
<stop offset="0.085" stop-color="#133F75"/>
<stop offset="0.1737" stop-color="#0C6583"/>
<stop offset="0.2621" stop-color="#07838E"/>
<stop offset="0.3491" stop-color="#039896"/>
<stop offset="0.4339" stop-color="#01A59B"/>
<stop offset="0.514" stop-color="#00A99D"/>
<stop offset="0.5855" stop-color="#01A49B"/>
<stop offset="0.6665" stop-color="#039796"/>
<stop offset="0.752" stop-color="#07808D"/>
<stop offset="0.8407" stop-color="#0D6081"/>
<stop offset="0.931" stop-color="#143872"/>
<stop offset="1" stop-color="#1B1464"/>
</linearGradient>
<linearGradient id="paint2_linear" x1="52.0317" y1="37.8668" x2="22.8606" y2="-12.6591" gradientUnits="userSpaceOnUse">
<stop offset="0.4162" stop-color="#1A1A66"/>
<stop offset="1" stop-color="#00A99D"/>
</linearGradient>
</defs>
</svg>
