<?xml version="1.0" encoding="iso-8859-1"?>
<!-- Generator: Adobe Illustrator 23.0.1, SVG Export Plug-In . SVG Version: 6.00 Build 0)  -->
<svg version="1.1" xmlns="http://www.w3.org/2000/svg" xmlns:xlink="http://www.w3.org/1999/xlink" x="0px" y="0px"
	 viewBox="0 0 1024 1024" style="enable-background:new 0 0 1024 1024;" xml:space="preserve">
<g id="Old" style="display:none;">
	<image style="display:inline;overflow:visible;" width="1024" height="1024" xlink:href="../OldLogoRitagliato.png" >
	</image>
</g>
<g id="_x32_">
	<linearGradient id="Sotto_2_" gradientUnits="userSpaceOnUse" x1="132.44" y1="890.8568" x2="863.2408" y2="379.1444">
		<stop  offset="0" style="stop-color:#00A99D"/>
		<stop  offset="0.7458" style="stop-color:#1B1464"/>
	</linearGradient>
	<path id="Sotto_1_" style="fill:url(#Sotto_2_);stroke:#000000;stroke-miterlimit:10;" d="M251.953,398.326
		c1.248,0,289.446,0,289.446,0c0.585-0.027,5.366-0.163,8.733,3.743c3.188,3.697,2.592,8.098,2.495,8.733L450.323,710.229h293.189
		c24.396-0.131,61.605-3.198,103.552-18.714c17.458-6.458,48.668-18.294,78.6-43.666c63.328-53.682,73.593-135.612,76.104-134.742
		c1.75,0.606-7.192,38.844-27.448,86.085c-12.714,29.652-24.675,50.698-34.933,68.619c-23.282,40.672-40.733,71.435-72.362,106.047
		c-28.467,31.153-55.103,51.438-68.619,61.133c-37.677,27.027-69.74,40.873-99.809,53.647
		c-35.106,14.914-84.312,32.573-145.971,44.914H78.535c-1.355-0.367-10.683-3.065-14.971-12.476c-3.078-6.755-1.752-13-1.248-14.971
		l177.161-495.302c0.291-1.412,1.314-5.441,4.99-8.733C247.374,399.466,250.486,398.624,251.953,398.326z"/>
	<linearGradient id="Centrale_2_" gradientUnits="userSpaceOnUse" x1="751.1972" y1="730.3542" x2="787.6198" y2="314.0421">
		<stop  offset="0" style="stop-color:#1B1464"/>
		<stop  offset="0.085" style="stop-color:#133F75"/>
		<stop  offset="0.1737" style="stop-color:#0C6583"/>
		<stop  offset="0.2621" style="stop-color:#07838E"/>
		<stop  offset="0.3491" style="stop-color:#039896"/>
		<stop  offset="0.4339" style="stop-color:#01A59B"/>
		<stop  offset="0.514" style="stop-color:#00A99D"/>
		<stop  offset="0.5855" style="stop-color:#01A49B"/>
		<stop  offset="0.6665" style="stop-color:#039796"/>
		<stop  offset="0.752" style="stop-color:#07808D"/>
		<stop  offset="0.8407" style="stop-color:#0D6081"/>
		<stop  offset="0.931" style="stop-color:#143872"/>
		<stop  offset="1" style="stop-color:#1B1464"/>
	</linearGradient>
	<path id="Centrale_1_" style="fill:url(#Centrale_2_);stroke:#000000;stroke-miterlimit:10;" d="M521.164,710.229h222.348
		c34.755,0.08,62.951-5.747,82.342-11.229c31.511-8.908,53.248-20.715,58.638-23.705c27.824-15.436,45.52-31.993,49.904-36.181
		c15.583-14.883,26.103-29.138,32.438-38.676c5.41-8.146,17.132-26.942,26.2-53.647c1.966-5.79,6.6-19.437,8.733-33.685
		c9.322-62.252-32.15-115.621-37.428-122.266c-18.646-23.476-39.268-36.375-51.152-43.666c-29.267-17.958-56.9-25.353-74.857-28.695
		H587.56c12.079,0.162,29.681,1.547,49.904,7.486c15.385,4.518,54.477,16.572,84.838,53.647c6.657,8.13,23.143,28.729,29.943,59.885
		c4.356,19.959,2.993,36.264,2.495,41.171c-1.176,11.592-3.645,19.845-7.486,32.438c-2.722,8.924-7.763,25.209-17.467,44.914
		c-15.819,32.125-34.272,53.529-39.924,59.885c-30.132,33.889-61.722,50.916-81.095,61.133
		C588.891,689.523,559.315,702.474,521.164,710.229z"/>
	<linearGradient id="Sopra_2_" gradientUnits="userSpaceOnUse" x1="753.9428" y1="638.1152" x2="329.2562" y2="-97.4636">
		<stop  offset="0.4162" style="stop-color:#1A1A66"/>
		<stop  offset="1" style="stop-color:#00A99D"/>
	</linearGradient>
	<path id="Sopra_1_" style="fill:url(#Sopra_2_);stroke:#000000;stroke-miterlimit:10;" d="M16.154,117.613l227.065,194.627
		c1.217,1.286,3.673,3.544,7.486,4.99c3.72,1.412,6.978,1.386,8.733,1.248H838.33c18.966,4.337,46.68,12.931,76.104,31.19
		c10.985,6.816,32.202,19.983,49.904,41.171c37.15,44.466,38.304,99.708,37.428,122.266c5.013-19.2,10.544-46.088,12.476-78.6
		c1.692-28.471,3.819-64.257-8.733-107.295c-2.374-8.139-14.159-47.007-46.162-88.58c-39-50.664-84.506-74.793-116.028-91.076
		c-61.691-31.867-120.513-42.738-163.437-46.162H16.154c-0.495,0.247-4.161,2.151-4.99,6.238
		C10.395,111.419,12.382,115.507,16.154,117.613z"/>
</g>
<g id="_x31_" style="display:none;">
	<linearGradient id="Sotto_4_" gradientUnits="userSpaceOnUse" x1="132.4399" y1="888.3616" x2="863.2394" y2="376.6502">
		<stop  offset="0" style="stop-color:#F7931E"/>
		<stop  offset="0.7709" style="stop-color:#ED1C24"/>
	</linearGradient>
	<path id="Sotto_3_" style="display:inline;fill:url(#Sotto_4_);stroke:#000000;stroke-miterlimit:10;" d="M251.953,395.831
		c1.248,0,289.446,0,289.446,0c0.585-0.027,5.366-0.163,8.733,3.743c3.188,3.697,2.592,8.098,2.495,8.733L450.323,707.734h293.189
		c24.396-0.131,61.605-3.198,103.552-18.714c17.458-6.458,48.668-18.294,78.6-43.666c61.374-52.025,73.528-135.688,76.104-134.742
		c1.126,0.413-3.383,15.437-6.238,24.952c-5.576,18.58-11.114,37.033-21.209,61.133c-3.467,8.277-13.646,31.433-34.933,68.619
		c-23.282,40.672-40.733,71.435-72.362,106.047c-28.467,31.153-55.103,51.438-68.619,61.133
		c-37.677,27.027-69.74,40.873-99.809,53.647c-35.106,14.914-84.312,32.573-145.971,44.914H78.535
		c-1.355-0.367-10.683-3.065-14.971-12.476c-3.078-6.755-1.752-13-1.248-14.971l177.161-495.302c0.291-1.412,1.314-5.441,4.99-8.733
		C247.374,396.971,250.486,396.129,251.953,395.831z"/>
	<linearGradient id="Centrale_4_" gradientUnits="userSpaceOnUse" x1="761.9783" y1="315.9835" x2="761.9783" y2="707.7345">
		<stop  offset="0" style="stop-color:#ED1C24"/>
		<stop  offset="0.0408" style="stop-color:#F03A21"/>
		<stop  offset="0.0995" style="stop-color:#F35D1E"/>
		<stop  offset="0.1616" style="stop-color:#F67B1C"/>
		<stop  offset="0.2272" style="stop-color:#F8911A"/>
		<stop  offset="0.2979" style="stop-color:#FAA118"/>
		<stop  offset="0.3772" style="stop-color:#FBAB17"/>
		<stop  offset="0.4832" style="stop-color:#FBAE17"/>
		<stop  offset="0.5995" style="stop-color:#FBAB17"/>
		<stop  offset="0.6843" style="stop-color:#FAA218"/>
		<stop  offset="0.7591" style="stop-color:#F8921A"/>
		<stop  offset="0.8281" style="stop-color:#F67B1C"/>
		<stop  offset="0.8932" style="stop-color:#F35E1E"/>
		<stop  offset="0.9545" style="stop-color:#F03B21"/>
		<stop  offset="1" style="stop-color:#ED1C24"/>
	</linearGradient>
	<path id="Centrale_3_" style="display:inline;fill:url(#Centrale_4_);stroke:#000000;stroke-miterlimit:10;" d="M521.164,707.734
		h222.348c34.755,0.08,62.951-5.747,82.342-11.229c31.511-8.908,53.248-20.715,58.638-23.705
		c27.824-15.436,45.52-31.993,49.904-36.181c6.234-5.954,19.337-19.138,32.438-38.676c4.786-7.138,14.659-22.039,22.457-42.419
		c0.533-1.392,3.31-8.702,6.238-18.714c0,0,4.099-14.019,6.238-26.2c3.127-17.811,1.279-73.534-37.428-122.266
		c-18.646-23.476-39.268-36.375-51.152-43.666c-29.267-17.958-56.9-25.353-74.857-28.695H587.56
		c12.079,0.162,29.681,1.547,49.904,7.486c15.385,4.518,54.477,16.572,84.838,53.647c6.657,8.13,23.143,28.729,29.943,59.885
		c4.356,19.959,2.993,36.264,2.495,41.171c-1.176,11.592-3.645,19.845-7.486,32.438c-2.722,8.924-7.763,25.209-17.467,44.914
		c-15.819,32.125-34.272,53.529-39.924,59.885c-30.132,33.889-61.722,50.916-81.095,61.133
		C588.891,687.027,559.315,699.979,521.164,707.734z"/>
	<linearGradient id="Sopra_4_" gradientUnits="userSpaceOnUse" x1="344.9075" y1="-72.85" x2="769.5942" y2="662.7289">
		<stop  offset="0" style="stop-color:#F7931E"/>
		<stop  offset="0.7235" style="stop-color:#ED1C24"/>
	</linearGradient>
	<path id="Sopra_3_" style="display:inline;fill:url(#Sopra_4_);stroke:#000000;stroke-miterlimit:10;" d="M16.154,115.118
		l227.065,194.627c1.217,1.286,3.673,3.544,7.486,4.99c3.72,1.412,6.978,1.386,8.733,1.248H838.33
		c18.966,4.337,46.68,12.931,76.104,31.19c10.985,6.816,32.202,19.983,49.904,41.171c37.15,44.466,38.304,99.708,37.428,122.266
		c5.013-19.2,10.544-46.088,12.476-78.6c1.692-28.471,3.819-64.257-8.733-107.295c-2.374-8.139-14.159-47.007-46.162-88.58
		c-39-50.664-84.506-74.793-116.028-91.076c-61.691-31.867-120.513-42.738-163.437-46.162H16.154
		c-0.495,0.247-4.161,2.151-4.99,6.238C10.395,108.924,12.382,113.012,16.154,115.118z"/>
</g>
</svg>
